<?xml version="1.0" encoding="utf-8"?>
<!-- Generator: Adobe Illustrator 28.0.0, SVG Export Plug-In . SVG Version: 6.00 Build 0)  -->
<svg version="1.1" id="Capa_1" xmlns="http://www.w3.org/2000/svg" xmlns:xlink="http://www.w3.org/1999/xlink" x="0px" y="0px"
	 viewBox="0 0 512 512" style="enable-background:new 0 0 512 512;" xml:space="preserve">
<style type="text/css">
	.st0{fill:#FFFFFF;}
</style>
<g>
	<g>
		<g>
			<path class="st0" d="M205.1,317.3v51.4c0,13.3,10.8,24.1,24.1,24.1h48.3c13.3,0,24.1-10.8,24.1-24.1v-51.4
				c21.8-15.3,36.2-40.6,36.2-69.2c0-46.6-37.9-84.5-84.5-84.5s-84.5,37.9-84.5,84.5C168.9,276.7,183.2,302,205.1,317.3z"/>
		</g>
		<g>
			<path class="st0" d="M84.4,272.2h36.2c13.3,0,24.1-10.8,24.1-24.1S133.9,224,120.6,224H84.4c-13.3,0-24.1,10.8-24.1,24.1
				S71.1,272.2,84.4,272.2z"/>
		</g>
		<g>
			<path class="st0" d="M361.9,248.1c0,13.3,10.8,24.1,24.1,24.1h36.2c13.3,0,24.1-10.8,24.1-24.1S435.6,224,422.2,224H386
				C372.7,224,361.9,234.8,361.9,248.1z"/>
		</g>
		<g>
			<path class="st0" d="M159.5,317.8c-6.2,0-12.3,2.4-17.1,7.1l-25.6,25.6c-9.4,9.4-9.4,24.7,0,34.1c9.4,9.4,24.7,9.4,34.1,0
				l25.6-25.6c9.4-9.4,9.4-24.7,0-34.1C171.8,320.2,165.6,317.8,159.5,317.8z"/>
		</g>
		<g>
			<path class="st0" d="M364.2,171.3l25.6-25.6c9.4-9.4,9.4-24.7,0-34.1c-4.7-4.7-10.9-7.1-17.1-7.1s-12.3,2.4-17.1,7.1l-25.6,25.6
				c-9.4,9.4-9.4,24.7,0,34.1C339.5,180.7,354.8,180.7,364.2,171.3z"/>
		</g>
		<g>
			<path class="st0" d="M142.4,171.3c9.4,9.4,24.7,9.4,34.1,0c9.4-9.4,9.4-24.7,0-34.1l-25.6-25.6c-4.7-4.7-10.9-7.1-17.1-7.1
				s-12.3,2.4-17.1,7.1c-9.4,9.4-9.4,24.7,0,34.1L142.4,171.3z"/>
		</g>
		<g>
			<path class="st0" d="M364.2,324.9c-4.7-4.7-10.9-7.1-17.1-7.1s-12.3,2.4-17.1,7.1c-9.4,9.4-9.4,24.7,0,34.1l25.6,25.6
				c9.4,9.4,24.7,9.4,34.1,0c9.4-9.4,9.4-24.7,0-34.1L364.2,324.9z"/>
		</g>
		<g>
			<path class="st0" d="M253.3,139.5c13.3,0,24.1-10.8,24.1-24.1V79.2c0-13.3-10.8-24.1-24.1-24.1s-24.1,10.8-24.1,24.1v36.2
				C229.2,128.7,240,139.5,253.3,139.5z"/>
		</g>
	</g>
	<g>
		<path class="st0" d="M256,506.5c-66.9,0-129.8-26.1-177.1-73.4C31.6,385.8,5.5,322.9,5.5,256S31.6,126.2,78.9,78.9
			C126.2,31.6,189.1,5.5,256,5.5s129.8,26.1,177.1,73.4c47.3,47.3,73.4,110.2,73.4,177.1s-26.1,129.8-73.4,177.1
			C385.8,480.4,322.9,506.5,256,506.5z M256,10.5C120.6,10.5,10.5,120.6,10.5,256S120.6,501.5,256,501.5S501.5,391.4,501.5,256
			S391.4,10.5,256,10.5z"/>
	</g>
</g>
</svg>
